# xmcd
#
# Track frame offsets: 
#        150
#        19742
#        49270
#        70627
#        114827
#        133647
#
# Disc length: 2241 seconds
#
# Revision: 9
# Processed by: cddbd v1.5.2PL0 Copyright (c) Steve Scherf et al.
# Submitted via: ExactAudioCopy v0.95b4
#
DISCID=4708bf06
DTITLE=Billy Cobham - Spectrum
DYEAR=1973
DGENRE=Jazz
TTITLE0=Quadrant 4
TTITLE1=a. Searching For The Right Door - b. Spectrum
TTITLE2=a. Anxiety - b. Taurian Matador
TTITLE3=Stratus
TTITLE4=a. To The Women In My Life - b. Le Lis
TTITLE5=a. Snoopy's Search - b. Red Baron
EXTD=Billy Cobham - percussion\nJan Hammer - electric piano, acousticp
EXTD=iano, Moog synthesizer\nTommy Bolin - guitar (1,2a,3,4,5a,6]\nLee
EXTD=Sklar - fender bass (1,2a,3,4,5a,6]\nJoe Farrell -flute, soprano
EXTD=, alto sax (2b,5b]\nJimmy Owens - flugelhorn, trumpet (2b, 5b]\nJ
EXTD=ohn Tropea - guitar (5b]\nRon Carter - acoustic bass (2b, 5b]\nRa
EXTD=yBarretto - congas (2b, 5b) YEAR: 1973
EXTT0=
EXTT1=
EXTT2=
EXTT3=
EXTT4=
EXTT5=
PLAYORDER=
